<?xml version="1.0" ?>
<!DOCTYPE svg  PUBLIC '-//W3C//DTD SVG 1.1//EN'  'http://www.w3.org/Graphics/SVG/1.1/DTD/svg11.dtd'>
<!-- Uploaded to: SVG Repo, www.svgrepo.com, Generator: SVG Repo Mixer Tools -->
<svg width="800px" height="800px" viewBox="-24.79 0 194.258 194.258" enable-background="new 0 0 144.685 194.258" id="Layer_1" version="1.1" xml:space="preserve" xmlns="http://www.w3.org/2000/svg" xmlns:xlink="http://www.w3.org/1999/xlink">
<g>
<path d="M112.488,24.81c-0.419-0.139-2.538-0.883-4.213-1.406h0c-1.305-0.466-2.847-0.957-4.662-1.663   c-3.1-0.952-6.601-1.824-10.104-2.521c-0.078,0.043-0.607-0.411-1.402-1.868c-0.832-1.206-1.69-3.501-4.765-4.024h0.003   c-0.167-0.018-0.328-0.026-0.486-0.026c-4.215,0.248-11.737,5.065-12.386,5.009L73.78,2.393c-0.058-1.379-1.227-2.45-2.605-2.39   s-2.45,1.227-2.39,2.608l0.638,14.666c-2.551-0.85-9.299-3.061-12.907-3.137c-0.098,0-0.202,0-0.314,0.006h0.009   c-3.104-0.236-4.382,3.541-4.361,4.076l0.008,0.207c-0.003,0,0.009,0.104-0.582,0.059c-3.814,0.348-7.499,0.8-10.378,1.425   c-2.257,0.852-4.502,0.555-5.787,2.985C16.633,28.06-0.426,43.934,0.008,78.15c0,9.809,1.261,21.153,4.027,34.355   c10.58,49.507,29.835,81.016,57.59,81.752c25.59-0.576,50.019-27.582,73.317-84.219c6.74-16.564,9.733-30.195,9.739-41.613   C144.941,43.68,129.56,30.118,112.488,24.81z M51.729,23.468c3.101,0.093,5.133-3.037,5.023-4.264   c0.005-0.025,0.008-0.04,0.013-0.064c2.244,0.09,8.846,2.173,11.197,2.927l2.01,3.351c0.694,1.157,2.179,1.555,3.36,0.898   c1.072-0.598,1.528-1.87,1.137-2.999c0.09-0.008,0.194-0.016,0.331-0.021c3.331-0.591,10.589-5.169,12.019-4.993l0.003,0.117   c0.985,0.656,1.494,4.447,5.711,5.706c3.345,0.664,6.702,1.499,9.609,2.395c1.718,0.527,3.111,1.023,4.196,1.468   c-1.579,0.202-3.657,0.346-5.935,0.317c-0.53,0-1.077-0.006-1.633-0.018c-4.709-0.095-7.038-0.392-8.486-0.403   c-0.346,0.009-0.645-0.009-1.224,0.15c-0.463,0-2.029,1.062-1.96,2.556c0.858,3.222,1.448,2.188,2.456,3.766   c0.996,1.1,2.306,2.703,3.65,5.13c1.022,1.837,1.367,3.403,1.364,4.479c0.003,0.757-0.174,1.239-0.291,1.437   c-0.263-0.135-0.828-0.626-1.603-2.352c-2.985-5.901-7.079-11.85-12.877-12.324c-2.775-0.069-5.086,2.223-5.904,5.106   c-1.151,3.524-2.237,7.938-3.391,11.372c-0.567,1.704-1.169,3.169-1.675,4.013c-0.015,0.025-0.028,0.044-0.042,0.067   c-0.698-1.094-1.076-2.877-1.063-5.014c-0.017-3.964,1.143-8.328,1.192-11.25c-0.003-0.763-0.15-3.606-3.173-3.892   c-1.223,0.046-1.854,0.495-2.533,0.93c-1.798,1.354-6.798,3.583-11.017,5.148c3.524-2.804,7.136-5.135,7.136-5.146   c0.916-0.588,1.35-1.707,1.065-2.758c-0.282-1.051-1.221-1.803-2.306-1.849c-0.052,0.057-10.553-0.591-16.315-2.639   c0.366-0.077,0.752-0.152,1.175-0.217C45.36,24.139,48.49,23.762,51.729,23.468z M125.682,106.268   c-22.547,55.933-46.927,78.568-64.056,77.992c-18.165,0.737-37.79-25.111-47.802-73.807c-2.66-12.669-3.817-23.353-3.817-32.303   c0.458-32.789,14.057-41.863,30.423-46.276c0.594-0.144,2.278-0.591,5.015-0.917c1.889,0.393,3.773,0.678,5.487,0.888   c-2.464,1.859-5.243,4.156-7.286,6.429c-0.533,0.686-1.146,1.203-1.247,2.738c0.228,2.749,2.838,2.977,3.443,2.979   c4.105-0.179,12.529-3.544,17.792-6.4c-0.349,2.291-0.898,5.541-0.911,8.68c0.017,2.917,0.438,6.025,2.467,8.56   c0.815,1.004,1.998,1.957,3.63,1.975c4.592-0.832,4.879-4.479,6.425-8.012c1.244-3.723,2.335-8.156,3.403-11.406   c0.751-1.899,0.961-1.592,1.151-1.661c1.08-0.472,6.221,4.252,8.334,9.417c1.442,3.077,3.429,5.208,6.31,5.309   c3.524-0.118,5.122-3.44,5.125-6.486c-0.003-2.093-0.625-4.441-1.989-6.903c-0.86-1.556-1.727-2.839-2.53-3.902   c1.049,0.051,2.244,0.097,3.621,0.125c0.59,0.012,1.169,0.018,1.733,0.018c1.164-0.001,2.266-0.026,3.305-0.076   c2.71,0.37,5.115,0.905,5.64,1.078c14.716,5.199,25.074,13.654,25.333,34.122C134.689,78.064,132.099,90.523,125.682,106.268z" fill="#231F20"/>
<path d="M87.498,132.942c-2.162,0-3.913,1.751-3.913,3.909c0,2.162,1.75,3.913,3.913,3.913   c2.159,0,3.906-1.751,3.909-3.913C91.404,134.693,89.656,132.942,87.498,132.942z M87.498,138.764   c-1.057,0-1.912-0.855-1.912-1.912c0-1.053,0.855-1.908,1.912-1.911c1.05,0.003,1.906,0.858,1.909,1.911   C89.403,137.908,88.548,138.764,87.498,138.764z" fill="#231F20"/>
<path d="M51.746,128.783c-2.159,0-3.909,1.75-3.909,3.909c0,2.162,1.75,3.912,3.909,3.912   c2.159,0,3.91-1.75,3.91-3.912C55.655,130.533,53.905,128.783,51.746,128.783z M51.746,134.604c-1.053,0-1.909-0.854-1.912-1.911   c0.003-1.054,0.858-1.909,1.912-1.912c1.054,0.003,1.909,0.855,1.909,1.912S52.799,134.604,51.746,134.604z" fill="#231F20"/>
<path d="M50.666,61.983c0-1.701-1.376-3.08-3.077-3.08c-1.702,0-3.078,1.379-3.078,3.08   c0,1.698,1.376,3.077,3.078,3.077C49.29,65.061,50.666,63.682,50.666,61.983z M47.589,63.063c-0.596-0.002-1.077-0.483-1.08-1.079   c0.003-0.599,0.486-1.079,1.08-1.082c0.596,0.003,1.077,0.483,1.08,1.082C48.666,62.579,48.185,63.061,47.589,63.063z" fill="#231F20"/>
<path d="M28.05,83.027c-1.929,0-3.495,1.566-3.495,3.495c0,1.932,1.563,3.495,3.495,3.497   c1.932-0.002,3.495-1.565,3.495-3.497C31.545,84.594,29.982,83.027,28.05,83.027z M28.05,88.02   c-0.823-0.003-1.494-0.671-1.494-1.497s0.67-1.494,1.494-1.494s1.494,0.668,1.494,1.494S28.874,88.017,28.05,88.02z" fill="#231F20"/>
<path d="M80.427,68.052c-1.929,0.003-3.492,1.566-3.492,3.498c0,1.929,1.563,3.495,3.492,3.495   c1.932,0,3.495-1.566,3.495-3.495C83.922,69.618,82.359,68.055,80.427,68.052z M80.427,73.044c-0.824,0-1.492-0.668-1.494-1.494   c0.002-0.826,0.67-1.494,1.494-1.497c0.826,0.003,1.494,0.671,1.497,1.497C81.921,72.376,81.253,73.044,80.427,73.044z" fill="#231F20"/>
<path d="M98.305,89.684c-1.702,0-3.078,1.378-3.081,3.08c0,1.701,1.379,3.077,3.081,3.077   c1.701,0,3.077-1.376,3.077-3.077C101.382,91.062,100.006,89.684,98.305,89.684z M98.305,93.843   c-0.596-0.003-1.08-0.483-1.08-1.079c0-0.599,0.484-1.08,1.08-1.083c0.593,0.003,1.076,0.484,1.076,1.083   C99.381,93.359,98.897,93.84,98.305,93.843z" fill="#231F20"/>
<path d="M60.644,96.506c0-1.932-1.563-3.495-3.495-3.495c-1.929,0-3.495,1.563-3.495,3.495s1.563,3.495,3.495,3.495   S60.644,98.438,60.644,96.506z M57.149,98.003c-0.824-0.003-1.494-0.671-1.494-1.497s0.67-1.494,1.494-1.494   c0.823,0,1.494,0.668,1.494,1.494S57.973,98,57.149,98.003z" fill="#231F20"/>
<path d="M61.724,158.73c-2.162,0-3.912,1.751-3.912,3.91c0,2.162,1.75,3.912,3.912,3.912   c2.159,0,3.909-1.75,3.909-3.912C65.633,160.481,63.883,158.73,61.724,158.73z M61.724,164.552c-1.057,0-1.909-0.855-1.912-1.911   c0.003-1.054,0.855-1.909,1.912-1.912c1.054,0.003,1.906,0.858,1.909,1.912C63.629,163.696,62.777,164.552,61.724,164.552z" fill="#231F20"/>
<path d="M118.775,63.837c-0.53,0.159-0.832,0.714-0.674,1.244c1.272,4.298,1.915,8.766,1.915,13.254   c0,7.891-1.983,15.836-5.997,23.024c-0.268,0.48-0.095,1.091,0.386,1.361c0.484,0.268,1.091,0.096,1.362-0.386   c4.18-7.493,6.25-15.775,6.25-24c0-4.678-0.668-9.339-1.998-13.824C119.861,63.981,119.305,63.679,118.775,63.837z" fill="#231F20"/>
<path d="M116.599,58.284c0.495-0.245,0.697-0.844,0.452-1.339c-1.37-2.775-3.022-5.435-4.957-7.937   c-0.337-0.438-0.964-0.519-1.402-0.182c-0.438,0.337-0.518,0.965-0.179,1.402c1.851,2.397,3.435,4.942,4.747,7.6   C115.505,58.324,116.104,58.529,116.599,58.284z" fill="#231F20"/>
</g>
</svg>