<?xml version="1.0" encoding="utf-8"?>

<!DOCTYPE svg PUBLIC "-//W3C//DTD SVG 1.1//EN" "http://www.w3.org/Graphics/SVG/1.1/DTD/svg11.dtd">
<!-- Uploaded to: SVG Repo, www.svgrepo.com, Generator: SVG Repo Mixer Tools -->
<svg height="800px" width="800px" version="1.1" id="_x32_" xmlns="http://www.w3.org/2000/svg" xmlns:xlink="http://www.w3.org/1999/xlink" 
	 viewBox="0 0 512 512"  xml:space="preserve">
<style type="text/css">
	.st0{fill:#000000;}
</style>
<g>
	<path class="st0" d="M470.19,207.829c-11.993-65.118-53.256-101.576-73.32-117.106l0.348-28.762h9.039h19.064l0.22-19.064
		l0.27-23.395L426.033,0h-19.506h-88.012h-19.283v19.283v23.395v19.284h19.283h9.504l-0.37,30.048l-0.016,1.512l0.216,1.5
		c0.612,4.206,1.077,8.28,1.61,12.41c-1.259,12.052-3.788,24.048-7.388,35.868c-23.451,20.739-50.728,37.424-78.885,49.815
		c-33.636,14.826-68.439,23.608-98.824,26.42c-12.946,1.2-25.29,1.626-36.25,1.626c-13.157,0-24.32-0.615-32.152-1.224
		c-3.916-0.307-7.002-0.615-9.089-0.841c-1.042-0.113-1.836-0.201-2.36-0.27l-0.58-0.07l-0.158-0.018l-0.009,0.069
		c-1.482-0.295-2.972-0.546-4.451-0.546c-9.224,0-17.714,5.599-21.238,14.444l-0.01,0.025c-1.161,2.924-1.638,5.976-1.635,8.838
		c0.094,7.564,2.796,13.791,5.464,19.967l0.038,0.088l0.047,0.094c0.537,1.174,5.803,11.688,21.286,23.558
		c15.467,11.889,41.034,25.033,81.7,32.032c2.712,0.464,9.036,1.701,16.901,2.793c1.064,0.144,2.225,0.283,3.342,0.421
		c-20.42,7.413-39.58,12.46-53.867,15.636c-7.648,1.701-13.904,2.881-18.222,3.634c-2.16,0.37-3.832,0.64-4.952,0.81l-1.258,0.188
		l-0.377,0.057l0.006,0.044c-11.399,0.804-20.645,9.579-21.907,20.985l-0.004,0.025c-0.094,0.86-0.137,1.708-0.137,2.554
		c0.006,5.43,1.817,10.188,4.07,14.237c2.281,4.086,5.078,7.676,7.969,11.229l0.06,0.076l0.075,0.082
		c0.74,0.878,7.341,8.254,22.209,15.341c14.861,7.099,37.92,13.847,71.27,13.834c8.433,0,17.523-0.427,27.312-1.381
		c13.141-1.306,28.426-1.789,44.878-5.078c2.458-0.489,4.953-1.073,7.461-1.714c-17.708,18.906-32.516,31.36-35.544,33.852
		c-13.129,9.152-17.965,26.666-11.217,41.323c6.745,14.556,21.976,20.011,30.159,22.943l0.192,0.069l0.197,0.063
		c1.867,0.628,8.873,2.668,20.526,2.668c22.302,0,58.817-7.375,106.118-42.528C455.134,398.93,490.076,315.79,470.19,207.829z
		 M164.519,301.001c-7.366-1.023-13.147-2.153-16.276-2.7c-38.056-6.566-60.436-18.511-73.236-28.322
		c-6.402-4.916-10.417-9.315-12.78-12.347c-1.18-1.513-1.946-2.687-2.382-3.409l-0.405-0.703c-2.482-5.48-3.816-9.867-3.722-11.951
		c0.003-0.81,0.11-1.3,0.283-1.752c0.555-1.406,1.921-2.272,3.314-2.272l0.854,0.107l0.515,0.125l0.524,0.069
		c0.305,0.044,19.396,2.599,46.906,2.599c11.459,0,24.383-0.446,38.033-1.714c32.669-3.038,69.259-12.316,104.815-27.964
		c19.623-8.65,38.887-19.322,56.987-31.932c-10.956,22.39-25.118,43.519-40.786,62.313c-16.238,19.522-34.003,36.527-51.074,49.872
		c-5.69,4.457-11.296,8.462-16.747,12.059l-0.066-0.647c-3.239,0.32-6.657,0.465-10.122,0.465
		C180.635,302.903,171.85,302.024,164.519,301.001z M238.538,393.89c-14.503,2.925-28.931,3.434-42.96,4.79
		c-9.193,0.897-17.658,1.293-25.435,1.293c-30.774-0.007-50.785-6.158-62.969-11.958c-6.092-2.907-10.232-5.738-12.764-7.734
		c-1.265-0.998-2.132-1.789-2.63-2.272l-0.436-0.439c-2.583-3.164-4.683-5.982-5.929-8.248c-1.296-2.329-1.647-3.867-1.641-4.865
		l0.025-0.464c0.247-2.21,2.087-3.905,4.274-3.955l0.521-0.012l0.524-0.069c0.44-0.069,40.92-5.53,87.243-22.974h0.009l0.028-0.012
		l1.252-0.471l-1.239,0.465c15.683-5.944,33.348-16.534,51.557-30.752c27.299-21.361,55.687-50.939,78.301-85.52
		c11.088-16.98,20.768-35.196,28.181-54.241c3.029,87.441-15.768,156.1-57.476,212.211
		C264.04,387.004,251.281,391.316,238.538,393.89z M348.721,453.993c-44.344,32.955-77.114,38.724-94.615,38.724
		c-9.419,0-14.412-1.67-14.412-1.67c-8.882-3.182-16.189-6.472-19.145-12.85c-2.938-6.384-0.734-13.973,5.204-17.757
		c0,0,31.423-25.209,61.378-63.124c1.186-1.5,2.279-3.076,3.436-4.601c1.073-0.734,2.147-1.425,3.217-2.209l-0.772-1.055
		c49.35-66.65,72.055-153.25,55.835-282.282c0.066-0.735,0.208-1.456,0.267-2.19l-0.556-0.044
		c-0.543-4.231-0.998-8.361-1.626-12.686l0.609-49.57h-29.025V19.283h88.012l-0.27,23.395h-28.09l-0.697,57.562
		c13.766,10.382,61.239,43.124,73.756,111.08C466.223,292.74,452.174,377.105,348.721,453.993z"/>
	<path class="st0" d="M394.196,177.63c2.241,11.958,6.563,36.408,6.563,67.065c-0.025,56.789-14.767,134.412-84.751,193.43
		l4.143,4.908c71.901-60.611,87.06-140.551,87.035-198.338c0-31.247-4.406-56.155-6.676-68.245L394.196,177.63z"/>
</g>
</svg>