<?xml version="1.0" ?>
<!DOCTYPE svg  PUBLIC '-//W3C//DTD SVG 1.1//EN'  'http://www.w3.org/Graphics/SVG/1.1/DTD/svg11.dtd'>
<!-- Uploaded to: SVG Repo, www.svgrepo.com, Generator: SVG Repo Mixer Tools -->
<svg width="800px" height="800px" viewBox="0 -4.18 219.366 219.366" enable-background="new 0 0 219.366 211.011" id="Layer_1" version="1.1" xml:space="preserve" xmlns="http://www.w3.org/2000/svg" xmlns:xlink="http://www.w3.org/1999/xlink">
<g>
<path d="M164.745,11.568c-5.516-1.822-10.835-2.507-15.799-2.507c-12.289,0.092-22.761,4.041-29.458,5.317   c2.053-3.759,5.884-8.68,7.458-10.143c0.958-0.996,0.93-2.576-0.063-3.535c-0.996-0.959-2.58-0.93-3.535,0.063   c-2.147,2.429-7.354,8.184-9.395,13.78c-3.864-1.638-12.552-9.064-29.051-9.197c-4.448,0-9.486,0.523-15.258,1.762   C22.038,17.073-0.339,55.366,0.004,104.83c0.011,52.092,36.831,95.572,85.914,105.879h0.003c0.999,0.21,1.989,0.302,2.951,0.302   c9.14-0.559,15.099-6.267,18.988-5.76c6.037-0.236,13.965,4.459,23.459,4.715c1.702,0,3.466-0.192,5.24-0.671   c45.35-11.933,73.625-40.74,80.828-89.461c1.336-8.72,1.978-16.913,1.978-24.594C219.583,49.382,195.839,21.607,164.745,11.568z    M207.501,118.319c-7.254,45.52-30.958,69.561-73.542,81.32c-0.817,0.219-1.678,0.325-2.64,0.325   c-5.519,0.257-13.648-4.482-23.459-4.715c-9.382,0.506-15.687,6.318-18.988,5.76c-0.322,0-0.613-0.028-0.904-0.089h0.003   c-44.518-9.348-77.978-48.824-77.966-96.091c0.342-46.968,19.106-78.554,61.738-87.941c5.173-1.111,9.5-1.543,13.159-1.543   c16.369-0.158,18.965,8.248,30.736,9.425c10.226-0.256,20.84-5.817,33.308-5.708c4.057,0.003,8.248,0.547,12.664,2.003   c27.369,9.253,47.534,31.69,47.753,74.175C209.363,102.365,208.771,110.055,207.501,118.319z" fill="#231F20"/>
<path d="M190.715,120.004c-0.544-0.095-1.063,0.271-1.157,0.814c-4.313,24.588-20.494,45.062-42.367,55.201   c-0.501,0.233-0.72,0.826-0.486,1.327c0.233,0.501,0.826,0.72,1.327,0.486c22.46-10.412,39.065-31.422,43.495-56.669   C191.622,120.62,191.259,120.102,190.715,120.004z" fill="#231F20"/>
<path d="M188.625,89.955c1.355,5.668,2.075,11.59,2.075,17.682c0,0.553,0.446,1.002,0.999,1.002   s1.002-0.449,1.002-1.002c0-6.25-0.737-12.327-2.13-18.147c-0.129-0.539-0.667-0.87-1.206-0.74   C188.829,88.879,188.498,89.417,188.625,89.955z" fill="#231F20"/>
</g>
</svg>