<?xml version="1.0" ?>
<!DOCTYPE svg  PUBLIC '-//W3C//DTD SVG 1.1//EN'  'http://www.w3.org/Graphics/SVG/1.1/DTD/svg11.dtd'>
<!-- Uploaded to: SVG Repo, www.svgrepo.com, Generator: SVG Repo Mixer Tools -->
<svg width="800px" height="800px" viewBox="0 -64.75 269.999 269.999" enable-background="new 0 0 269.999 140.499" id="Layer_1" version="1.1" xml:space="preserve" xmlns="http://www.w3.org/2000/svg" xmlns:xlink="http://www.w3.org/1999/xlink">
<g>
<path d="M267.497,0H2.499C1.117,0,0,1.119,0,2.498c0,0.401,0,2.331,0,3c0.003,74.561,60.44,134.998,135.001,135.001   c74.561-0.003,134.995-60.44,134.998-135.001c0-0.846,0-2.766,0-3C269.999,1.119,268.879,0,267.497,0z M135.001,130.498   c-69.033-0.124-124.876-55.967-125-125c0-0.171,0.03-0.498,0.03-0.498h249.938c0,0,0.032,0.327,0.032,0.498   C259.874,74.531,204.034,130.374,135.001,130.498z" fill="#231F20"/>
<path d="M240.391,26.847c-0.541-0.104-1.065,0.253-1.166,0.797c-1.249,6.642-3.135,13.059-5.591,19.182   c-0.207,0.512,0.044,1.097,0.556,1.301c0.513,0.205,1.095-0.043,1.299-0.555c2.508-6.244,4.428-12.788,5.703-19.559   C241.292,27.472,240.935,26.948,240.391,26.847z" fill="#231F20"/>
<path d="M227.227,61.966c-0.47-0.288-1.086-0.142-1.374,0.331c-14.368,23.41-37.83,40.637-65.463,46.763   c-0.539,0.118-0.881,0.653-0.76,1.192c0.121,0.539,0.654,0.881,1.192,0.76c28.178-6.244,52.092-23.805,66.737-47.67   C227.845,62.873,227.698,62.256,227.227,61.966z" fill="#231F20"/>
<path d="M191.8,42.77c4.344-0.005,6.583-2.841,6.589-5.907c-0.093-5.464-4.576-12.209-5.254-13.278   c-0.117-0.228-0.284-0.429-0.498-0.572c-0.328-0.219-0.737-0.299-1.125-0.222c-0.139,0.028-0.269,0.082-0.394,0.146   c-0.016,0.008-0.03,0.016-0.045,0.024c-0.08,0.045-0.153,0.097-0.224,0.155c-0.024,0.02-0.05,0.038-0.073,0.06   c-0.063,0.06-0.119,0.126-0.171,0.196c-0.015,0.021-0.036,0.036-0.05,0.057c-0.022,0.138-5.245,7.537-5.346,13.433   C185.219,39.929,187.456,42.764,191.8,42.77z M191.816,27.166c1.455,2.544,3.641,6.883,3.573,9.697   c-0.221,1.969-0.299,2.683-3.589,2.908c-3.291-0.225-3.366-0.939-3.59-2.908C188.142,34.047,190.362,29.709,191.816,27.166z" fill="#231F20"/>
<path d="M169.489,77.712c-0.093-5.451-4.554-12.175-5.246-13.266c-0.112-0.228-0.278-0.433-0.504-0.583   c-0.478-0.317-1.066-0.32-1.538-0.069c-0.003,0.002-0.006,0.003-0.009,0.005c-0.098,0.053-0.19,0.116-0.275,0.191   c-0.008,0.007-0.017,0.013-0.025,0.021c-0.083,0.077-0.161,0.162-0.227,0.26c-0.002,0.003-0.006,0.006-0.009,0.01   c-0.023,0.138-5.242,7.537-5.346,13.432c0.009,3.066,2.246,5.902,6.59,5.907C167.244,83.614,169.483,80.778,169.489,77.712z    M159.313,77.712c-0.07-2.815,2.15-7.151,3.604-9.695c1.455,2.544,3.64,6.881,3.572,9.695c-0.222,1.969-0.299,2.683-3.59,2.908   C159.609,80.396,159.534,79.682,159.313,77.712z" fill="#231F20"/>
<path d="M77.037,23.013c-0.473-0.315-1.059-0.319-1.53-0.071c-0.007,0.004-0.015,0.008-0.022,0.012   c-0.089,0.049-0.173,0.107-0.252,0.175c-0.016,0.014-0.033,0.025-0.049,0.04c-0.066,0.062-0.125,0.131-0.18,0.207   c-0.015,0.02-0.035,0.035-0.048,0.055c-0.023,0.138-5.242,7.537-5.343,13.433c0.006,3.066,2.243,5.901,6.586,5.907   c4.344-0.005,6.584-2.841,6.59-5.907c-0.093-5.44-4.535-12.146-5.243-13.261C77.433,23.372,77.266,23.165,77.037,23.013z    M76.199,39.771c-3.288-0.225-3.365-0.939-3.587-2.908c-0.068-2.815,2.151-7.152,3.605-9.696c1.455,2.545,3.64,6.882,3.572,9.696   C79.567,38.832,79.489,39.545,76.199,39.771z" fill="#231F20"/>
<path d="M134.866,29.032c-0.322-0.228-0.731-0.316-1.12-0.248c-0.154,0.027-0.299,0.084-0.436,0.157   c-0.008,0.004-0.016,0.008-0.024,0.012c-0.103,0.057-0.199,0.122-0.286,0.2c-0.001,0.001-0.003,0.002-0.004,0.003   c-0.081,0.074-0.157,0.154-0.22,0.245l-0.006,0.008c-0.004,0.006-0.007,0.014-0.011,0.02c-0.001,0.001-0.002,0.002-0.003,0.003   c-0.023,0.138-5.246,7.536-5.346,13.429c0.009,3.066,2.246,5.902,6.589,5.907c4.344-0.005,6.584-2.841,6.59-5.907   c-0.093-5.435-4.533-12.136-5.242-13.255C135.236,29.379,135.074,29.177,134.866,29.032z M133.999,45.77   c-3.29-0.225-3.365-0.938-3.59-2.908c-0.068-2.816,2.153-7.153,3.607-9.696c1.455,2.544,3.64,6.882,3.572,9.696   C137.367,44.831,137.29,45.545,133.999,45.77z" fill="#231F20"/>
<path d="M105.937,63.863c-0.475-0.316-1.063-0.32-1.535-0.069c-0.004,0.002-0.008,0.004-0.012,0.006   c-0.098,0.053-0.19,0.117-0.275,0.192c-0.007,0.007-0.016,0.012-0.023,0.019c-0.085,0.079-0.165,0.166-0.232,0.266l-0.006,0.009   c-0.005,0.008-0.009,0.018-0.014,0.026c-0.192,0.371-5.227,7.604-5.329,13.4c0.008,3.066,2.245,5.902,6.589,5.907   c4.344-0.005,6.583-2.841,6.589-5.907c-0.093-5.422-4.508-12.102-5.235-13.246C106.341,64.23,106.171,64.019,105.937,63.863z    M105.099,80.62c-3.291-0.225-3.365-0.938-3.587-2.908c-0.07-2.816,2.15-7.153,3.604-9.697c1.455,2.544,3.641,6.883,3.573,9.697   C108.467,79.682,108.39,80.396,105.099,80.62z" fill="#231F20"/>
</g>
</svg>