<?xml version="1.0" ?>
<!DOCTYPE svg  PUBLIC '-//W3C//DTD SVG 1.1//EN'  'http://www.w3.org/Graphics/SVG/1.1/DTD/svg11.dtd'>
<!-- Uploaded to: SVG Repo, www.svgrepo.com, Generator: SVG Repo Mixer Tools -->
<svg width="800px" height="800px" viewBox="-3.99 0 180.296 180.296" enable-background="new 0 0 172.307 180.296" id="Layer_1" version="1.1" xml:space="preserve" xmlns="http://www.w3.org/2000/svg" xmlns:xlink="http://www.w3.org/1999/xlink">
<g>
<path d="M86.153,0C38.38,0.035,0.086,40.542,0,90.149c0.086,49.604,38.38,90.112,86.153,90.146   c47.773-0.034,86.067-40.542,86.153-90.146C172.221,40.542,133.927,0.035,86.153,0z M86.153,170.295   c-41.869-0.08-76.136-35.702-76.152-80.146c0.017-44.445,34.283-80.067,76.152-80.148c41.869,0.081,76.136,35.703,76.152,80.148   C162.289,134.593,128.022,170.215,86.153,170.295z" fill="#231F20"/>
<path d="M55.797,87.492c0.121,0.003,0.238,0.006,0.356,0.006c3.763,0.043,5.657-1.644,6.025-2.196   c0.662-0.855,0.696-2.047,0.089-2.939c-0.184-0.247-2.239-3.271-6.661-3.575h0.003c-0.294-0.018-0.584-0.025-0.863-0.025   c-2.877,0.012-5.196,0.761-5.952,1.026c-0.042,0.012-0.082,0.031-0.125,0.045c-0.066,0.024-0.116,0.042-0.133,0.048   c-0.005,0.002-0.009,0.006-0.014,0.008c-0.365,0.144-0.705,0.363-0.979,0.681c-0.155,0.181-0.271,0.381-0.365,0.587   c-0.003,0.005-0.005,0.011-0.008,0.017c-0.088,0.193-0.151,0.394-0.188,0.6c0,0.001-0.001,0.002-0.001,0.003c0,0,0,0.001,0,0.002   c-0.07,0.41-0.037,0.829,0.096,1.225c0.01,0.027,0.021,0.054,0.031,0.081c0.06,0.157,0.135,0.309,0.227,0.454   c0.021,0.033,0.04,0.067,0.063,0.1c0.108,0.153,0.231,0.299,0.377,0.429c0.007,0.007,0.012,0.016,0.019,0.021   c0.001,0,0.003,0.003,0.005,0.003c0.002,0.002,0.003,0.004,0.005,0.006l0.005,0.006c0.031,0.027,0.068,0.046,0.102,0.071   C48.535,84.672,51.551,87.288,55.797,87.492z" fill="#231F20"/>
<path d="M56.202,69.097c0.002,0.003,0.005,0.013,0.007,0.017c0.001,0.004,0.001,0.009,0.002,0.013l0.003,0.012   c0.006,0.022,0.02,0.04,0.027,0.062c0.199,0.621,1.004,3.827,3.902,6.05c1.73,1.258,3.299,1.661,4.396,1.652   c0.6,0,1.039-0.109,1.27-0.19c1.014-0.351,1.693-1.313,1.682-2.383c-0.018-0.303-0.023-3.4-2.988-5.764   c-2.128-1.625-4.31-2.268-5.063-2.466c-0.069-0.024-0.142-0.037-0.213-0.055c-0.025-0.007-0.046-0.013-0.057-0.016l-0.001,0.002   c-0.391-0.089-0.806-0.097-1.22,0.019c-1.319,0.365-2.095,1.727-1.743,3.047L56.202,69.097z" fill="#231F20"/>
<path d="M103.285,72.197c0.348-0.014,3.411-0.009,5.783-2.916c1.665-2.13,2.334-4.324,2.535-5.055   c0.021-0.062,0.034-0.125,0.051-0.188c0.008-0.029,0.013-0.05,0.017-0.061c0.002-0.009,0.001-0.018,0.003-0.025   c0.091-0.399,0.097-0.815-0.012-1.213c-0.059-0.215-0.155-0.414-0.267-0.604c-0.003-0.005-0.006-0.009-0.008-0.013   c-0.106-0.179-0.233-0.343-0.38-0.489c-0.003-0.003-0.005-0.007-0.008-0.01c-0.002-0.002-0.004-0.003-0.006-0.004   c-0.151-0.15-0.314-0.287-0.501-0.394c-0.178-0.103-0.37-0.173-0.565-0.228c-0.024-0.007-0.048-0.011-0.072-0.017   c-0.166-0.042-0.334-0.065-0.505-0.073c-0.044-0.002-0.086-0.004-0.13-0.004c-0.176,0.001-0.351,0.02-0.523,0.059   c-0.02,0.005-0.039,0.002-0.058,0.007c-0.002,0.001-0.012,0.004-0.015,0.006c-0.011,0.002-0.021,0.002-0.031,0.005l-0.009,0.003   c-0.035,0.01-0.065,0.027-0.1,0.038c-0.727,0.214-3.84,1.007-6.041,3.813c-1.307,1.751-1.716,3.346-1.707,4.442   c-0.003,0.564,0.098,0.979,0.173,1.203C101.247,71.507,102.205,72.197,103.285,72.197z" fill="#231F20"/>
<path d="M93.348,65.352c0.273-0.146,3.549-1.768,4.465-6.105c0.23-1.16,0.305-2.266,0.305-3.244   c-0.002-1.767-0.238-3.123-0.348-3.661c-0.007-0.051-0.021-0.1-0.031-0.15c-0.012-0.052-0.021-0.091-0.023-0.104   c-0.001-0.002-0.002-0.004-0.002-0.006c-0.092-0.391-0.269-0.767-0.554-1.088c-0.152-0.172-0.328-0.308-0.512-0.428   c-0.01-0.006-0.02-0.012-0.028-0.018c-0.173-0.108-0.354-0.195-0.544-0.258c-0.008-0.003-0.014-0.008-0.021-0.011   c-0.005-0.002-0.01-0.001-0.014-0.003c-0.393-0.123-0.807-0.148-1.212-0.073c-0.034,0.007-0.068,0.017-0.103,0.024   c-0.16,0.036-0.314,0.09-0.466,0.158c-0.038,0.017-0.075,0.031-0.111,0.05c-0.172,0.088-0.337,0.192-0.489,0.323   c-0.003,0.003-0.007,0.004-0.01,0.007l-0.002,0.002c-0.006,0.005-0.012,0.008-0.018,0.013l-0.006,0.009   c-0.021,0.019-0.037,0.042-0.057,0.062c-0.541,0.516-3.599,3.157-4.397,7.371c-0.126,0.761-0.182,1.454-0.182,2.082   c-0.022,2.66,1.061,4.177,1.457,4.551C91.203,65.634,92.371,65.832,93.348,65.352z" fill="#231F20"/>
<path d="M102.781,79.573c-0.031,1.07,0.628,2.05,1.635,2.421c0.185,0.063,1.377,0.492,3.164,0.495   c1.509,0.003,3.483-0.331,5.436-1.534c3.301-2.058,5.324-4.806,5.868-5.581c0.033-0.041,0.06-0.087,0.09-0.129   c0.027-0.04,0.048-0.068,0.056-0.079l-0.003-0.002c0.228-0.346,0.381-0.739,0.417-1.155c0.055-0.657-0.155-1.322-0.578-1.825   c-0.414-0.492-1.015-0.806-1.655-0.874v-0.005c-0.069-0.006-0.671-0.068-1.598-0.068c-1.935,0.025-5.306,0.195-8.329,2.153   C103.365,75.923,102.747,78.87,102.781,79.573z" fill="#231F20"/>
<path d="M119.029,89.396l-0.009-0.009c-0.01-0.007-0.021-0.01-0.029-0.017c-0.238-0.12-2.385-1.942-5.659-2.03   c-0.115,0-0.23,0.003-0.349,0.009h0.006c-2.882,0.095-4.442,1.54-4.778,2.142c-0.6,0.907-0.547,2.087,0.129,2.937   c0.202,0.233,1.849,2.309,5.142,2.357h0.118c2.274-0.057,4.04-0.752,4.697-1.036c0.039-0.013,0.074-0.033,0.112-0.048   c0.086-0.037,0.146-0.064,0.168-0.073l-0.001-0.002c0.354-0.17,0.673-0.411,0.914-0.726c0.399-0.521,0.581-1.195,0.494-1.849   C119.898,90.397,119.551,89.796,119.029,89.396z" fill="#231F20"/>
<path d="M108.015,111.666c3.234,2.238,6.594,2.993,7.479,3.176c0.064,0.017,0.129,0.027,0.195,0.04   c0.006,0.001,0.021,0.004,0.024,0.005v-0.002c0.43,0.075,0.876,0.049,1.289-0.102c0.619-0.225,1.135-0.696,1.411-1.292   c0.264-0.564,0.296-1.216,0.109-1.809l0.009-0.003c-0.005-0.007-0.015-0.034-0.023-0.056c-0.005-0.015-0.007-0.03-0.012-0.045   l-0.002-0.012c-0.008-0.021-0.022-0.037-0.03-0.057c-0.326-0.909-1.799-5.396-5.788-8.116c-2.335-1.528-4.307-1.98-5.674-1.975   c-0.916,0-1.535,0.193-1.791,0.297c-0.996,0.4-1.627,1.394-1.566,2.464C103.677,104.48,103.896,108.715,108.015,111.666z" fill="#231F20"/>
<path d="M98.098,112.903c-0.271,0-0.48,0.026-0.622,0.052c-1.054,0.199-1.865,1.051-2.013,2.11   c-0.014,0.098-0.046,0.363-0.046,0.76c-0.003,1.086,0.245,3.371,2.156,5.381c2.229,2.286,4.733,3.21,4.905,3.293l0.001-0.002   c0.352,0.136,0.73,0.203,1.11,0.172c0.656-0.058,1.275-0.377,1.699-0.878c0.426-0.504,0.639-1.169,0.581-1.825v-0.009l-0.006-0.061   c-0.089-0.213-0.25-3.828-2.997-6.661C100.999,113.382,99.143,112.881,98.098,112.903z" fill="#231F20"/>
<path d="M71.065,109.829c-0.288,0.098-3.276,0.907-4.784,4.388c-1.008,2.452-1.057,4.706-1.068,5.513   c0,0.148,0.004,0.237,0.005,0.279c0.012,0.361,0.093,0.72,0.257,1.045c0.031,0.063,0.075,0.117,0.112,0.177   c0.004,0.006,0.009,0.013,0.013,0.02c0.109,0.173,0.235,0.332,0.383,0.474c0.004,0.004,0.007,0.008,0.012,0.012   c0.266,0.253,0.579,0.453,0.929,0.567c0.049,0.017,0.101,0.021,0.15,0.033c0.027,0.008,0.055,0.013,0.082,0.019   c0.168,0.038,0.337,0.059,0.509,0.062c0.038,0.001,0.075,0.003,0.113,0.002c0.19-0.005,0.381-0.026,0.565-0.074   c0.008-0.002,0.015-0.002,0.021-0.004c0.161-0.044,0.318-0.103,0.468-0.178l0.008-0.003c0.021-0.011,0.038-0.026,0.06-0.038   c0.018-0.009,0.038-0.013,0.056-0.022c0.158-0.17,3.409-1.759,4.912-5.409c0.457-1.218,0.639-2.283,0.639-3.179   c0.009-1.393-0.458-2.331-0.697-2.671C73.204,109.944,72.104,109.538,71.065,109.829z M68.995,115.347L68.995,115.347l-0.405-0.169   L68.995,115.347z" fill="#231F20"/>
<path d="M82.521,61.02c0.195-0.23,1.644-1.745,1.681-4.463c0-0.345-0.028-0.708-0.086-1.076   c-0.425-2.566-1.583-4.362-1.796-4.706c-0.205-0.334-0.48-0.63-0.841-0.845c-0.046-0.027-0.095-0.042-0.142-0.065   c-0.003-0.002-0.007-0.003-0.01-0.005c-0.188-0.096-0.382-0.164-0.579-0.208c-0.007-0.001-0.013-0.003-0.019-0.005   c-0.422-0.091-0.851-0.073-1.253,0.049c-0.02,0.006-0.037,0.014-0.056,0.021c-0.166,0.055-0.324,0.127-0.477,0.216   c-0.036,0.021-0.071,0.04-0.106,0.063c-0.146,0.095-0.281,0.204-0.406,0.329c-0.017,0.017-0.036,0.03-0.053,0.048   c-0.122,0.13-0.233,0.272-0.329,0.432l-0.003,0.008c-0.007,0.012-0.011,0.025-0.018,0.037s-0.017,0.021-0.023,0.032   c-0.071,0.185-1.249,2.137-1.292,4.868c0,0.438,0.037,0.898,0.126,1.373c0.496,2.842,2.143,4.186,2.784,4.437   C80.604,62.026,81.774,61.811,82.521,61.02z" fill="#231F20"/>
<path d="M87.507,129.58c0.001-0.001,0.002-0.002,0.003-0.003c0.148-0.116,0.279-0.25,0.397-0.396   c0.033-0.04,0.063-0.081,0.093-0.123c0.087-0.122,0.162-0.251,0.227-0.387c0.016-0.033,0.04-0.06,0.055-0.094   c0.005-0.014,0.021-0.054,0.04-0.104c0.001-0.002,0.002-0.003,0.003-0.005l0.006-0.011c0.002-0.005,0.002-0.01,0.004-0.015   c0.245-0.62,1.287-3.313,1.306-6.593c0-1.073-0.118-2.222-0.464-3.38c-1.281-4.493-3.918-5.944-4.603-6.117   c-1.017-0.34-2.147,0.009-2.793,0.864c-0.155,0.232-1.819,2.412-1.845,5.915c0,0.821,0.098,1.705,0.339,2.623   c1.028,3.843,3.129,6.612,3.657,7.287c0.031,0.044,0.065,0.084,0.099,0.126c0.009,0.011,0.021,0.026,0.024,0.031   c0.007,0.008,0.017,0.014,0.022,0.021c0.129,0.151,0.274,0.285,0.436,0.402c0.008,0.006,0.016,0.013,0.023,0.019   c0.182,0.129,0.373,0.243,0.584,0.32c0.386,0.14,0.8,0.169,1.203,0.112c0.007-0.001,0.014,0.001,0.021,0   c0.006-0.001,0.012-0.004,0.018-0.005c0.23-0.036,0.458-0.092,0.67-0.19C87.202,129.8,87.359,129.695,87.507,129.58z" fill="#231F20"/>
<path d="M66.555,55.083c-0.004-0.002-0.009-0.002-0.013-0.004c-0.335-0.16-0.701-0.255-1.075-0.255   c-0.26,0-0.514,0.053-0.759,0.132c-0.011,0.003-0.021,0.006-0.03,0.009c-0.364,0.123-0.704,0.317-0.979,0.591   c-0.028,0.028-0.048,0.063-0.075,0.092c-0.004,0.005-0.008,0.011-0.013,0.016c-0.124,0.141-0.23,0.294-0.32,0.458   c-0.02,0.034-0.038,0.067-0.055,0.103c-0.074,0.151-0.134,0.308-0.177,0.47c-0.008,0.032-0.021,0.063-0.028,0.096   c-0.039,0.175-0.063,0.354-0.063,0.534v0.011c0,0.012,0.004,0.023,0.004,0.035s-0.004,0.022-0.004,0.034   c0.075,0.219-0.012,5.51,3.382,9.566c2.672,3.112,5.307,3.699,6.383,3.665c0.146,0,0.262-0.006,0.343-0.018   c1.067-0.109,1.948-0.898,2.182-1.943c0.029-0.135,0.164-0.786,0.164-1.779c0.003-1.595-0.371-4.203-2.337-6.612   C70.242,56.834,66.719,55.178,66.555,55.083z" fill="#231F20"/>
<path d="M51.169,96.868c0.129,0.104,0.269,0.193,0.419,0.271c0.039,0.02,0.076,0.041,0.116,0.059   c0.156,0.07,0.321,0.125,0.495,0.162c0.022,0.005,0.042,0.018,0.064,0.021c0.006,0.001,0.022,0.004,0.032,0.006l0.009,0.003   c0.004,0.001,0.007,0,0.011,0.001c0.22,0.04,1.071,0.181,2.258,0.181c1.347-0.012,3.144-0.155,4.935-1.129   c2.938-1.56,3.716-3.794,3.739-4.496c0.118-1.068-0.461-2.093-1.434-2.542c-0.208-0.09-1.308-0.591-2.988-0.599   c-1.014-0.003-2.251,0.204-3.495,0.84c-2.394,1.241-3.901,2.943-4.394,3.53c-0.035,0.037-0.065,0.079-0.1,0.118   c-0.031,0.038-0.067,0.083-0.078,0.095c-0.005,0.006-0.007,0.014-0.012,0.02c-0.239,0.311-0.417,0.676-0.489,1.089   c-0.04,0.231-0.036,0.458-0.014,0.681c0.001,0.004,0.002,0.009,0.002,0.013c0.022,0.208,0.069,0.408,0.141,0.6   c0.002,0.006,0.002,0.012,0.004,0.017c0.001,0.003,0.003,0.006,0.005,0.009c0.148,0.387,0.391,0.729,0.705,0.999   C51.123,96.833,51.146,96.85,51.169,96.868z" fill="#231F20"/>
<path d="M67.663,104.486c-0.124-1.065-0.922-1.938-1.97-2.156c-0.132-0.026-0.73-0.145-1.644-0.145   c-1.586-0.006-4.263,0.372-6.716,2.433c-2.992,2.544-4.592,5.594-4.999,6.404c-0.031,0.054-0.056,0.109-0.083,0.165   c-0.007,0.014-0.017,0.032-0.02,0.038c-0.003,0.008-0.004,0.016-0.007,0.023c-0.174,0.379-0.265,0.802-0.227,1.246   c0.095,1.101,0.893,1.961,1.911,2.206c0.037,0.009,0.073,0.017,0.111,0.024c0.157,0.03,0.317,0.044,0.481,0.043   c0.033,0,0.065,0.01,0.099,0.009c0.007-0.002,0.032-0.005,0.048-0.007c0.019-0.001,0.037,0.003,0.056,0.001h0.009   c0.028-0.003,0.056-0.013,0.084-0.016c0.995-0.081,5.679-0.359,9.315-3.496c3.017-2.672,3.602-5.269,3.572-6.379   C67.686,104.711,67.674,104.578,67.663,104.486z" fill="#231F20"/>
<path d="M149.616,96.469c-0.553,0-1.002,0.449-1.002,0.999c0,4.721-0.538,9.313-1.555,13.72   c-0.123,0.538,0.21,1.074,0.749,1.198c0.538,0.126,1.076-0.211,1.2-0.749c1.051-4.554,1.606-9.296,1.606-14.169   C150.615,96.918,150.166,96.469,149.616,96.469z" fill="#231F20"/>
<path d="M145.672,119.251c-0.515-0.201-1.097,0.05-1.298,0.562c-8.884,22.438-30.74,38.303-56.298,38.303   c-0.553,0-0.999,0.446-0.999,0.999s0.446,0.998,0.999,0.998c26.401,0,48.982-16.386,58.157-39.563   C146.436,120.037,146.185,119.456,145.672,119.251z" fill="#231F20"/>
</g>
</svg>