<?xml version="1.0" ?>

<!DOCTYPE svg  PUBLIC '-//W3C//DTD SVG 1.1//EN'  'http://www.w3.org/Graphics/SVG/1.1/DTD/svg11.dtd'>

<!-- Uploaded to: SVG Repo, www.svgrepo.com, Generator: SVG Repo Mixer Tools -->
<svg width="800px" height="800px" viewBox="-17.69 0 224.728 224.728" enable-background="new 0 0 189.352 224.728" id="Layer_1" version="1.1" xml:space="preserve" xmlns="http://www.w3.org/2000/svg" xmlns:xlink="http://www.w3.org/1999/xlink">

<g>

<path d="M112.325,9.88c-0.091-0.143-0.228-0.367-0.443-0.726c-1.333-2.66-6.25-9.538-15.879-9.138   C89.404-0.208,84.774,3.649,82.88,6.494c-2.171,3.083-2.605,3.388-2.715,3.308C35.625,17.856,0.435,74.67,0,117.8   c0.1,44.365,32.392,89.33,78.303,96.097c1.093,2.27,5.279,11.255,16.323,10.815c0.199,0,0.4,0,0.604-0.006   c6.705,0.041,11.374-3.043,13.539-5.755c2.38-2.826,2.458-3.057,3.209-3.172c43.294-8.767,77.123-55.086,77.373-97.979   C189.06,73.932,159.001,16.797,112.325,9.88z M110.065,205.966c-5.395,1.085-7.598,5.141-8.792,6.367   c-1.417,1.345-1.624,2.079-6.267,2.375c-0.129,0.003-0.253,0.006-0.38,0.006c-4.514-0.241-4.629-1.103-5.957-2.772   c-1.434-1.289-1.114-5.904-7.937-7.796c-40.436-4.972-70.83-46.287-70.732-86.346C9.566,79.679,44.699,25.137,81.798,19.667   c5.81-1.122,7.732-5.604,9.057-7.139c1.601-1.771,1.549-2.289,5.147-2.511c4.563,0.21,4.842,1.094,6.198,2.608   c1.327,1.172,1.906,5.656,8.21,7.073c38.973,4.134,69.235,58.002,68.941,98.101C179.602,155.555,147.498,198.99,110.065,205.966z" fill="#231F20"/>

<path d="M159.6,152.132c-0.486-0.265-1.094-0.083-1.356,0.4c-10.441,19.256-28.529,34.076-50.526,40.309   c-0.532,0.15-0.84,0.702-0.69,1.232c0.149,0.532,0.705,0.841,1.235,0.69c22.523-6.382,41.043-21.55,51.74-41.275   C160.265,153.001,160.083,152.394,159.6,152.132z" fill="#231F20"/>

<path d="M168.449,123.565c-0.547-0.071-1.048,0.317-1.117,0.864c-0.683,5.319-1.889,10.493-3.57,15.468   c-0.178,0.521,0.104,1.088,0.627,1.267c0.521,0.176,1.088-0.104,1.267-0.628c1.725-5.096,2.959-10.398,3.659-15.854   C169.385,124.136,169,123.635,168.449,123.565z" fill="#231F20"/>

</g>

</svg>