<?xml version="1.0" ?>

<!DOCTYPE svg  PUBLIC '-//W3C//DTD SVG 1.1//EN'  'http://www.w3.org/Graphics/SVG/1.1/DTD/svg11.dtd'>

<!-- Uploaded to: SVG Repo, www.svgrepo.com, Generator: SVG Repo Mixer Tools -->
<svg width="800px" height="800px" viewBox="-20.3 0 242.38 242.38" enable-background="new 0 0 201.78 242.38" id="Layer_1" version="1.1" xml:space="preserve" xmlns="http://www.w3.org/2000/svg" xmlns:xlink="http://www.w3.org/1999/xlink">

<g>

<path d="M129.177,42.183c-3.209-0.711-6.131-1.025-8.786-1.025c-4.361-0.02-7.992,0.882-10.896,2.102   c2.178-7.316,4.459-17.688,4.692-29.582c0.052-2.761-2.147-5.041-4.908-5.093c-2.761-0.049-5.041,2.147-5.089,4.908   c-0.213,12.413-3.008,23.077-5.198,29.676c-1.255-0.811-2.694-1.567-4.328-2.166c-1.117-2.269-2.562-5.231-4.431-9.108   C82.866,16.405,83.83,5.015,60.875,0.063c-0.714-0.164-1.474,0-2.059,0.44c-0.584,0.44-0.95,1.126-0.993,1.857   c-0.104,1.851-0.155,3.624-0.155,5.322c-0.305,19.645,7.7,30.031,21.121,32.889C33.332,49.678,0.012,91.101,0,139.203   c0.009,50.862,37.499,92.95,86.353,100.018c0.572,0.084,1.131,0.118,1.678,0.118c0.396-0.027,0.78-0.068,1.159-0.116   c0.088,0.829,0.584,1.585,1.369,1.976c1.083,0.536,2.389,0.225,3.112-0.742l2.367-3.162c0.282-0.119,0.554-0.235,0.814-0.351   l1.753,3.953c0.414,0.93,1.341,1.515,2.36,1.482c1.016-0.029,1.909-0.668,2.266-1.621l1.497-4.001l4.655,4.082   c0.823,0.72,2.018,0.823,2.95,0.253c0.839-0.511,1.287-1.454,1.179-2.41c0.821,0.117,1.675,0.2,2.561,0.237   c0.855,0,1.745-0.069,2.651-0.23c47.235-8.443,83.044-49.774,83.056-99.485C201.763,93.522,172.258,51.774,129.177,42.183z    M62.668,7.683c0-0.644,0.014-1.31,0.03-1.979c17.605,4.942,14.901,11.762,23.032,28.363c0.562,1.162,1.081,2.235,1.569,3.241   c-1.572-0.523-3.351-0.955-5.372-1.254C69.178,33.704,62.991,27.396,62.668,7.683z M116.965,228.843   c-0.271,0.049-0.564,0.075-0.893,0.075c-2.827,0.291-7.986-3-15.183-3.273c-7.007,0.467-11.392,4.188-12.86,3.696   c-0.098,0-0.178-0.006-0.247-0.018c-43.962-6.356-77.794-44.284-77.782-90.12C9.989,95.472,40.557,57.976,81.49,50.217   c1.897-0.359,3.53-0.507,4.934-0.507c4.831,0.061,6.961,1.506,8.688,2.994c0.351,0.32,0.665,0.647,0.968,0.98   c0.372,1.376,1.305,2.59,2.697,3.237c0.091,0.042,0.186,0.06,0.278,0.097c0.681,0.491,1.762,0.964,3.677,1.282   c5.939-1.157,5.32-3.152,8.012-4.407c2.133-1.382,4.825-2.704,9.647-2.735c1.865,0,4.056,0.219,6.63,0.789   c37.784,8.251,64.775,45.764,64.758,87.256C191.791,184.003,159.474,221.246,116.965,228.843z" fill="#231F20"/>

<path d="M179.369,137.136c-0.553-0.014-1.01,0.424-1.025,0.977c-0.129,5.607-0.82,11.123-2.029,16.478   c-0.121,0.539,0.219,1.074,0.757,1.195c0.539,0.123,1.074-0.216,1.195-0.755c1.235-5.483,1.943-11.129,2.079-16.872   C180.356,137.605,179.918,137.147,179.369,137.136z" fill="#231F20"/>

<path d="M173.263,167.795c-0.513-0.21-1.097,0.032-1.307,0.544c-8.755,21.165-25.93,38.551-48.099,47.423   c-0.512,0.204-0.763,0.786-0.555,1.298c0.204,0.513,0.786,0.764,1.298,0.559c22.676-9.076,40.243-26.853,49.205-48.516   C174.014,168.593,173.772,168.009,173.263,167.795z" fill="#231F20"/>

</g>

</svg>